<?xml version="1.0" encoding="utf-8"?>
<!-- Generator: Adobe Illustrator 23.1.1, SVG Export Plug-In . SVG Version: 6.00 Build 0)  -->
<svg version="1.1" xmlns="http://www.w3.org/2000/svg" xmlns:xlink="http://www.w3.org/1999/xlink" x="0px" y="0px"
	 viewBox="0 0 1024 1024" style="enable-background:new 0 0 1024 1024;" xml:space="preserve">
<style type="text/css">
	.st0{fill:url(#SVGID_1_);}
	.st1{display:none;fill:#E7EFF6;}
	.st2{display:none;fill:url(#SVGID_2_);}
	.st3{fill:#FFFFFF;}
	.st4{display:none;}
	.st5{display:inline;}
	.st6{fill:url(#SVGID_3_);}
	.st7{display:inline;fill:#FFFFFF;}
	.st8{font-family:'FontAwesome';}
	.st9{font-size:707.5447px;}
	.st10{fill:url(#SVGID_4_);}
	.st11{font-family:'FontAwesome5ProSolid';}
	.st12{font-size:650.5266px;}
</style>
<g id="poll_bg">
	<g>
		<linearGradient id="SVGID_1_" gradientUnits="userSpaceOnUse" x1="512" y1="0" x2="512" y2="1024">
			<stop  offset="0" style="stop-color:#1FA2FF"/>
			<stop  offset="1" style="stop-color:#336ED4"/>
		</linearGradient>
		<path class="st0" d="M0,512c0,282.8,229.2,512,512,512s512-229.2,512-512S794.8,0,512,0S0,229.2,0,512C0,512,0,229.2,0,512z"/>
	</g>
	<rect x="485" y="411" class="st1" width="128" height="128"/>
	<radialGradient id="SVGID_2_" cx="549.0002" cy="475" r="108.675" gradientUnits="userSpaceOnUse">
		<stop  offset="0" style="stop-color:#DBE8F2"/>
		<stop  offset="0.1031" style="stop-color:#D5E6F1"/>
		<stop  offset="0.2405" style="stop-color:#C4E0EE"/>
		<stop  offset="0.3973" style="stop-color:#A8D7E9"/>
		<stop  offset="0.5685" style="stop-color:#82C9E1"/>
		<stop  offset="0.7513" style="stop-color:#50B8D8"/>
		<stop  offset="0.9411" style="stop-color:#14A4CD"/>
		<stop  offset="1" style="stop-color:#009DC9"/>
	</radialGradient>
	<rect x="485" y="411" class="st2" width="128" height="128"/>
</g>
<g id="poll">
	<path class="st3" d="M135.7,661.1c66.2,39.7,306.8,181.8,306.8,181.8s115.5-287.4,445.8-420.4c0,0-82-137.3-140.6-241.4
		C542,312.5,403.2,673.6,403.2,673.6L211.1,483.2C211.1,483.2,143.9,639.5,135.7,661.1z"/>
</g>
<g id="contest_bg" class="st4">
	<g class="st5">
		<linearGradient id="SVGID_3_" gradientUnits="userSpaceOnUse" x1="512" y1="0" x2="512" y2="1024">
			<stop  offset="0" style="stop-color:#3023AE"/>
			<stop  offset="0" style="stop-color:#5234B7"/>
			<stop  offset="0" style="stop-color:#7143C0"/>
			<stop  offset="0" style="stop-color:#8D50C7"/>
			<stop  offset="0" style="stop-color:#A35BCD"/>
			<stop  offset="0" style="stop-color:#B463D1"/>
			<stop  offset="0" style="stop-color:#BF69D5"/>
			<stop  offset="0" style="stop-color:#C66CD6"/>
			<stop  offset="0" style="stop-color:#C86DD7"/>
			<stop  offset="1" style="stop-color:#3626B0"/>
		</linearGradient>
		<path class="st6" d="M0,896c0,70.7,57.3,128,128,128h768c70.7,0,128-57.3,128-128V128c0-70.7-57.3-128-128-128H128
			C57.3,0,0,57.3,0,128V896z"/>
	</g>
</g>
<g id="contest" class="st4">
	<text transform="matrix(1 0 0 1 183.4963 772.7837)" class="st7 st8 st9"></text>
</g>
<g id="quiz_bg" class="st4">
	<g class="st5">
		<linearGradient id="SVGID_4_" gradientUnits="userSpaceOnUse" x1="512" y1="0" x2="512" y2="1024">
			<stop  offset="0" style="stop-color:#F7BB4C"/>
			<stop  offset="1" style="stop-color:#F76B1C"/>
		</linearGradient>
		<path class="st10" d="M0,896c0,70.7,57.3,128,128,128h768c70.7,0,128-57.3,128-128V128c0-70.7-57.3-128-128-128H128
			C57.3,0,0,57.3,0,128V896z"/>
	</g>
</g>
<g id="quiz" class="st4">
	<text transform="matrix(1 0 0 1 268.0525 767.0649)" class="st7 st11 st12">?</text>
</g>
</svg>
